Coordinates
version=1
nRows=22
nColumns=24
inDegrees=yes

Units are S.I. units (second, meters, Newtons, ...)
Angles are in degrees.

endheader
time	pelvis_tilt	pelvis_list	pelvis_rotation	pelvis_tx	pelvis_ty	pelvis_tz	hip_flexion_r	hip_adduction_r	hip_rotation_r	knee_angle_r	ankle_angle_r	subtalar_angle_r	mtp_angle_r	hip_flexion_l	hip_adduction_l	hip_rotation_l	knee_angle_l	ankle_angle_l	subtalar_angle_l	mtp_angle_l	lumbar_extension	lumbar_bending	lumbar_rotation
      2.30500000	     25.22875884	     -1.18483805	      4.10999009	      0.48364021	      0.85049620	     -0.01604306	    -33.39873500	      2.67210174	    -20.83286296	    -40.27865207	     22.03701834	     12.84061506	     55.01157405	     -7.96605352	     -0.17125447	    -10.55109810	    -17.71159051	     12.36552418	      4.54850141	     45.42915246	    -40.00659544	      2.69726416	     -8.98505582
      2.31000000	     25.11834076	     -0.90773559	      4.07484662	      0.48904979	      0.85078994	     -0.01654977	    -32.49682943	      1.99513596	    -21.07117595	    -42.56083593	     20.69186026	     11.80294862	     57.20144694	     -8.15773353	      0.16531108	    -10.30631642	    -18.01067501	     12.79282079	      4.39316380	     44.61168648	    -39.88395751	      2.38127208	     -9.18604696
      2.31500000	     25.01395421	     -0.64030898	      3.98601876	      0.49444097	      0.85109447	     -0.01693063	    -31.58148806	      1.31069663	    -21.20871508	    -44.81267919	     19.58620584	     10.83300174	     57.21630885	     -8.39185725	      0.48077033	    -10.23162902	    -18.23254462	     13.15278937	      4.46647896	     44.55053635	    -39.76961152	      2.03841313	     -9.28369643
      2.32000000	     24.88071121	     -0.39928290	      3.93400932	      0.49981098	      0.85138896	     -0.01735122	    -30.63711293	      0.69373192	    -21.28013973	    -46.92893200	     18.47368149	      9.77009115	     57.32998292	     -8.60791912	      0.77133731	    -10.12128464	    -18.41143418	     13.59161376	      4.44348459	     44.37451969	    -39.62209954	      1.74237517	     -9.44478256
      2.32500000	     24.78030468	     -0.15214595	      3.88589999	      0.50516930	      0.85173367	     -0.01777038	    -29.73677403	      0.08050754	    -21.35440899	    -48.92790698	     17.46384101	      8.71741815	     57.38341703	     -8.88407415	      1.05831471	    -10.07914641	    -18.53914945	     13.98366977	      4.56137418	     44.09934024	    -39.50926199	      1.44656436	     -9.58782181
      2.33000000	     24.68999414	      0.07808243	      3.82592425	      0.51052312	      0.85210462	     -0.01815632	    -28.85146312	     -0.49580950	    -21.34886223	    -50.79947190	     16.66031502	      7.67845827	     57.22025899	     -9.21585481	      1.32914088	    -10.06966905	    -18.55985066	     14.41374720	      4.75142842	     43.89502787	    -39.40505702	      1.16140891	     -9.72394559
      2.33500000	     24.59689526	      0.26048865	      3.78902221	      0.51583092	      0.85249604	     -0.01853764	    -27.96335592	     -0.98570425	    -21.29702374	    -52.52747389	     15.98837976	      6.62195540	     56.79069084	     -9.53549878	      1.53449242	    -10.10634920	    -18.59084866	     14.86266781	      5.00394656	     43.61514145	    -39.29715388	      0.93435188	     -9.84623083
      2.34000000	     24.53389069	      0.42300884	      3.78244534	      0.52111800	      0.85293496	     -0.01890882	    -27.12285926	     -1.41832089	    -21.24924805	    -54.12464529	     15.58802953	      5.79425936	     54.94636648	     -9.89080190	      1.69055869	    -10.19542857	    -18.62311678	     15.37957680	      5.63783955	     42.52685379	    -39.22240358	      0.74281357	     -9.98361639
      2.34500000	     24.48253868	      0.61145597	      3.72074544	      0.52637095	      0.85340464	     -0.01926605	    -26.28886275	     -1.89688123	    -21.15205539	    -55.61448081	     15.37474301	      4.97482901	     54.70274016	    -10.30453786	      1.90880878	    -10.31421398	    -18.52958973	     15.69893969	      5.81372587	     42.47907456	    -39.16346535	      0.50573940	    -10.11127407
      2.35000000	     24.41601575	      0.64886658	      3.68943023	      0.53152000	      0.85387182	     -0.01951793	    -25.41728892	     -2.14379268	    -20.92598606	    -56.95934840	     15.45284330	      4.26589453	     51.86917719	    -10.65204655	      1.92490134	    -10.50578005	    -18.53844116	     16.27312442	      6.40052982	     41.50585660	    -39.09082552	      0.41560826	    -10.13573696
      2.35500000	     24.34098804	      0.68219213	      3.71923577	      0.53659424	      0.85435058	     -0.01989444	    -24.54984520	     -2.35472269	    -20.78005820	    -58.13913265	     15.48219929	      3.38843372	     51.25876152	    -10.98177298	      1.93944057	    -10.59899908	    -18.52919568	     16.70659746	      6.74894714	     41.37178117	    -39.01593281	      0.37531967	    -10.21469438
      2.36000000	     24.31619345	      0.71198088	      3.73020317	      0.54172091	      0.85491895	     -0.02018420	    -23.75953915	     -2.54166203	    -20.61086640	    -59.18842012	     15.92320017	      2.91218898	     48.77464862	    -11.40806916	      1.93290379	    -10.79244339	    -18.44002190	     17.13717844	      7.45968912	     40.71089056	    -38.98633415	      0.32521292	    -10.32722439
      2.36500000	     24.26628709	      0.74324794	      3.70886371	      0.54667490	      0.85543787	     -0.02048818	    -22.90283501	     -2.74664733	    -20.41618364	    -60.16465915	     16.28398499	      2.32844676	     48.53151506	    -11.79426139	      1.96564846	    -10.93257832	    -18.33599290	     17.42540956	      7.64557130	     40.68054803	    -38.95193282	      0.26477403	    -10.39192885
      2.37000000	     24.21763382	      0.65727316	      3.71006449	      0.55163119	      0.85597830	     -0.02072001	    -22.05313135	     -2.77269356	    -20.15983688	    -60.98500425	     16.95295092	      2.04363435	     45.37166388	    -12.15787152	      1.83682395	    -11.17504563	    -18.29354218	     17.94117333	      8.27671552	     39.84280961	    -38.90957810	      0.32399422	    -10.39326573
      2.37500000	     24.15519537	      0.61772779	      3.73622712	      0.55646953	      0.85650117	     -0.02101960	    -21.19022400	     -2.84169754	    -19.98598568	    -61.68620290	     17.55175874	      1.55462127	     45.20283576	    -12.50478878	      1.77860559	    -11.25928906	    -18.21224946	     18.21471279	      8.53442659	     39.82975076	    -38.86906033	      0.35800466	    -10.46719145
      2.38000000	     24.08943139	      0.40371314	      3.79095464	      0.56130859	      0.85702695	     -0.02119777	    -20.32567136	     -2.65592706	    -19.72589762	    -62.19055786	     18.24684576	      1.19961371	     43.48230555	    -12.78444696	      1.47762557	    -11.52972259	    -18.28481604	     18.77845941	      9.28476923	     39.45372763	    -38.81375359	      0.56302031	    -10.45836093
      2.38500000	     23.93906601	      0.31392517	      3.79854019	      0.56604201	      0.85740063	     -0.02144881	    -19.34059546	     -2.66086913	    -19.52366148	    -62.73234402	     19.13791054	      1.13712472	     41.45749933	    -13.00804376	      1.37993740	    -11.61002241	    -18.24102562	     19.13157790	      9.52746136	     38.79184191	    -38.68810421	      0.63649099	    -10.49154942
      2.39000000	     23.90653731	      0.17865244	      3.78416187	      0.57078564	      0.85794109	     -0.02157273	    -18.50859815	     -2.58027154	    -19.29765281	    -63.06562102	     19.92438315	      0.93877812	     40.35340707	    -13.38184723	      1.21025215	    -11.82031480	    -18.15670900	     19.47772185	     10.00835531	     38.38913946	    -38.68633336	      0.73806600	    -10.47653450
      2.39500000	     23.81224676	      0.05744200	      3.76821388	      0.57545125	      0.85838209	     -0.02173732	    -17.59741287	     -2.52107801	    -19.09707028	    -63.34090409	     20.80387007	      0.89768765	     38.67548882	    -13.68338400	      1.08454743	    -11.91406219	    -18.05986186	     19.82603232	     10.23875362	     37.70141357	    -38.62820162	      0.83230185	    -10.46509271
      2.40000000	     23.70302143	     -0.08793135	      3.75201685	      0.58006641	      0.85878195	     -0.02185306	    -16.67398114	     -2.41338960	    -18.88776596	    -63.47577214	     21.59350014	      0.78151214	     38.57948973	    -13.94496255	      0.92986696	    -12.02142209	    -17.99874111	     20.05762661	     10.37840978	     37.66572416	    -38.55971387	      0.94627687	    -10.45955611
      2.40500000	     23.61083310	     -0.29176038	      3.74906280	      0.58470349	      0.85918013	     -0.02191023	    -15.78850585	     -2.21197905	    -18.69229398	    -63.47311905	     22.47384553	      0.77924558	     36.83293407	    -14.20837992	      0.68719349	    -12.18336015	    -17.99302358	     20.51305141	     10.84181841	     37.00913282	    -38.50289889	      1.11940669	    -10.40568633
      2.41000000	     23.52538829	     -0.44005091	      3.75476173	      0.58924314	      0.85957690	     -0.02205870	    -14.92098226	     -2.07641203	    -18.56005568	    -63.36613657	     23.25276833	      0.71005609	     36.82569864	    -14.50461375	      0.54025574	    -12.16520419	    -17.88389435	     20.67016728	     10.85912495	     36.98524238	    -38.46805265	      1.26023192	    -10.38246226
